<?xml version="1.0" encoding="UTF-8" standalone="no"?>
<svg xmlns="http://www.w3.org/2000/svg" xmlns:xlink="http://www.w3.org/1999/xlink" clip-rule="evenodd" stroke-miterlimit="10" viewBox="200.00 20.00 16.00 16.00">
    <desc>SVG generated by Lineform</desc>
    <defs/>
    <g>
        <g/>
        <path d="M 207.00 30.00 L 207.00 27.00 L 203.00 27.00 L 208.00 22.00 L 213.00 27.00 L 209.00 27.00 L 209.00 30.00 Z M 207.00 31.00 " fill="#4D4D4D"/>
        <path d="M 210.00 34.00 C 210.00 35.10 209.10 36.00 208.00 36.00 C 206.90 36.00 206.00 35.10 206.00 34.00 L 206.00 33.00 L 210.00 33.00 L 210.00 34.00 " fill="#FDFCFF" fill-opacity="0.66"/>
        <path d="M 207.00 28.00 L 203.00 28.00 L 203.00 27.00 L 207.00 27.00 Z M 206.00 26.00 " fill="#FDFCFF" fill-opacity="0.66"/>
        <ellipse cx="208.00" cy="33.00" rx="2.00" ry="2.00" fill="#4D4D4D"/>
        <path d="M 213.00 28.00 L 209.00 28.00 L 209.00 27.00 L 213.00 27.00 Z M 212.00 26.00 " fill="#FDFCFF" fill-opacity="0.66"/>
        <path d="M 209.00 31.00 L 207.00 31.00 L 207.00 30.00 L 209.00 30.00 Z M 208.50 29.00 " fill="#FDFCFF" fill-opacity="0.66"/>
    </g>
</svg>