<?xml version="1.0" encoding="UTF-8" standalone="no"?>
<svg xmlns="http://www.w3.org/2000/svg" xmlns:xlink="http://www.w3.org/1999/xlink" clip-rule="evenodd" stroke-miterlimit="10" viewBox="280.00 20.00 16.00 16.58">
    <desc>SVG generated by Lineform</desc>
    <defs/>
    <g>
        <g/>
        <path d="M 289.00 32.00 C 289.00 33.10 288.10 34.00 287.00 34.00 C 285.90 34.00 285.00 33.10 285.00 32.00 L 285.00 31.00 L 289.00 31.00 L 289.00 32.00 " fill="#FDFCFF" fill-opacity="0.66"/>
        <ellipse cx="287.00" cy="31.00" rx="2.00" ry="2.00" fill="#4D4D4D"/>
        <path d="M 294.50 30.00 L 289.00 30.00 L 289.00 29.00 L 291.00 28.00 C 288.95 26.33 287.80 26.42 287.02 26.42 C 285.33 26.42 283.81 27.02 282.23 29.04 L 281.23 28.09 L 281.23 27.10 C 282.04 26.85 285.71 24.42 287.02 24.42 C 288.20 24.42 290.16 25.16 292.00 27.00 L 294.50 29.00 Z M 294.00 30.00 " fill="#FDFCFF" fill-opacity="0.66"/>
        <path d="M 294.50 29.00 L 289.00 29.00 L 291.00 27.00 C 288.95 25.33 287.80 25.42 287.02 25.42 C 285.41 25.42 283.96 25.96 282.47 27.75 C 282.39 27.84 282.31 27.94 282.23 28.04 L 281.23 27.09 C 282.83 24.67 284.64 23.00 287.00 23.00 C 288.18 23.00 290.66 23.66 292.50 25.50 L 294.50 23.50 Z M 294.00 29.00 " fill="#4D4D4D"/>
        <g/>
    </g>
</svg>