<?xml version="1.0" encoding="UTF-8" standalone="no"?>
<svg xmlns="http://www.w3.org/2000/svg" xmlns:xlink="http://www.w3.org/1999/xlink" clip-rule="evenodd" stroke-miterlimit="10" viewBox="175.00 125.00 13.00 15.18">
    <desc>SVG generated by Lineform</desc>
    <defs/>
    <g>
        <path d="M 175.50 127.98 C 175.50 126.61 176.61 125.50 177.98 125.50 L 185.02 125.50 C 186.39 125.50 187.50 126.61 187.50 127.98 L 187.50 134.02 L 181.50 139.50 L 175.50 134.02 Z M 175.50 127.98 " fill="#E7E7E7" stroke="#4E4E4E" stroke-width="1.00"/>
        <path d="M 177.97 126.00 C 177.69 126.00 177.46 126.06 177.22 126.16 C 176.98 126.26 176.77 126.41 176.59 126.59 C 176.41 126.77 176.26 126.98 176.16 127.22 C 176.06 127.46 176.00 127.69 176.00 127.97 L 176.00 131.97 C 179.25 130.13 183.75 130.13 187.00 131.97 L 187.00 127.97 C 187.00 127.69 186.94 127.46 186.84 127.22 C 186.74 126.98 186.59 126.77 186.41 126.59 C 186.23 126.41 186.02 126.26 185.78 126.16 C 185.54 126.06 185.31 126.00 185.03 126.00 L 177.97 126.00 Z M 177.97 126.00 " fill="#FFFFFF" opacity="0.50"/>
    </g>
</svg>