<?xml version="1.0" encoding="UTF-8" standalone="no"?>
<svg xmlns="http://www.w3.org/2000/svg" xmlns:xlink="http://www.w3.org/1999/xlink" clip-rule="evenodd" stroke-miterlimit="10" viewBox="175.00 106.00 13.00 13.00">
    <desc>SVG generated by Lineform</desc>
    <defs/>
    <g>
        <ellipse cx="181.50" cy="112.50" rx="6.00" ry="6.00" fill="#E7E7E7" stroke="#4E4E4E" stroke-width="1.00" opacity="1.00"/>
        <path d="M 181.50 107.00 C 180.80 107.00 180.10 107.14 179.44 107.41 C 178.78 107.67 178.16 108.09 177.62 108.62 C 177.09 109.16 176.67 109.78 176.41 110.44 C 176.14 111.10 176.00 111.80 176.00 112.50 C 176.00 112.65 176.01 112.85 176.02 113.00 C 179.24 111.22 183.77 111.22 186.98 113.00 C 186.99 112.85 187.00 112.65 187.00 112.50 C 187.00 111.80 186.86 111.10 186.59 110.44 C 186.33 109.78 185.91 109.16 185.38 108.62 C 184.84 108.09 184.22 107.67 183.56 107.41 C 182.90 107.14 182.20 107.00 181.50 107.00 Z M 181.50 107.00" fill="#FFFFFF" opacity="0.50"/>
    </g>
</svg>