<?xml version="1.0" encoding="UTF-8" standalone="no"?>
<svg xmlns="http://www.w3.org/2000/svg" xmlns:xlink="http://www.w3.org/1999/xlink" clip-rule="evenodd" stroke-miterlimit="10" viewBox="360.00 46.00 16.00 16.00">
    <desc>SVG generated by Lineform</desc>
    <defs/>
    <g>
        <path d="M 374.50 54.50 C 374.50 57.81 371.81 60.50 368.50 60.50 C 365.19 60.50 362.50 57.81 362.50 54.50 L 362.50 53.50 M 374.50 53.50 L 374.50 54.50 " stroke="#FDFCFF" stroke-opacity="0.66" stroke-width="1.00" fill="none"/>
        <g/>
        <path d="M 372.00 53.50 L 368.50 53.50 L 366.00 50.00 " stroke="#4D4D4D" stroke-width="1.00" fill="none"/>
        <path d="M 365.63 50.32 L 368.20 54.00 L 372.00 54.00 L 372.00 55.00 L 368.20 55.00 L 365.63 51.32 Z M 365.69 50.31 " fill="#FDFCFF" fill-opacity="0.66"/>
        <path d="M 368.50 59.50 L 368.50 58.00 M 374.50 53.50 L 373.00 53.50 M 368.50 47.50 L 368.50 49.00 M 362.50 53.50 L 364.00 53.50 " stroke="#4D4D4D" stroke-width="1.00" fill="none"/>
        <ellipse cx="368.50" cy="53.50" rx="6.00" ry="6.00" stroke="#4D4D4D" stroke-width="1.00" fill="none"/>
    </g>
</svg>