<?xml version="1.0" encoding="UTF-8" standalone="no"?>
<svg xmlns="http://www.w3.org/2000/svg" xmlns:xlink="http://www.w3.org/1999/xlink" clip-rule="evenodd" stroke-miterlimit="10" viewBox="322.00 46.00 16.00 16.00">
    <desc>SVG generated by Lineform</desc>
    <defs>
        <linearGradient id="def1" x1="0.97" y1="0.95" x2="0.16" y2="0.13" gradientUnits="userSpaceOnUse" gradientTransform="matrix(5.65685, -5.65685, 5.65685, 5.65685, 321.343, 54)">
            <stop offset="0.00" stop-color="#4D4D4D"/>
            <stop offset="1.00" stop-color="#4D4D4D" stop-opacity="0.00"/>
        </linearGradient>
        <linearGradient id="def2" x1="0.97" y1="0.95" x2="0.16" y2="0.13" gradientUnits="userSpaceOnUse" gradientTransform="matrix(5.65685, -5.65685, 5.65685, 5.65685, 321.343, 55)">
            <stop offset="0.00" stop-color="#FDFCFF" stop-opacity="0.66"/>
            <stop offset="1.00" stop-color="#FDFCFF" stop-opacity="0.00"/>
        </linearGradient>
    </defs>
    <g>
        <path d="M 327.00 50.00 L 333.00 50.00 L 333.00 58.00 C 330.99 58.00 329.21 58.00 327.00 58.00 C 324.79 58.00 323.00 56.21 323.00 54.00 C 323.00 51.79 324.79 50.00 327.00 50.00 " fill="url(#def1)"/>
        <g/>
        <path d="M 335.00 56.00 C 337.21 56.00 337.00 52.79 337.00 55.00 C 337.00 57.21 335.21 59.00 333.00 59.00 L 333.00 58.00 C 333.00 55.79 332.79 56.00 335.00 56.00 " fill="#FDFCFF" fill-opacity="0.66"/>
        <ellipse cx="333.00" cy="54.00" rx="4.00" ry="4.00" fill="#4D4D4D"/>
        <path d="M 327.00 58.00 L 333.00 58.00 L 333.00 59.00 C 330.99 59.00 329.21 59.00 327.00 59.00 C 324.79 59.00 323.00 57.21 323.00 55.00 C 324.00 56.79 324.79 58.00 327.00 58.00 " fill="url(#def2)"/>
    </g>
</svg>