<?xml version="1.0" encoding="UTF-8" standalone="no"?>
<svg xmlns="http://www.w3.org/2000/svg" xmlns:xlink="http://www.w3.org/1999/xlink" clip-rule="evenodd" stroke-miterlimit="10" viewBox="358.00 46.00 16.01 16.00">
    <desc>SVG generated by Lineform</desc>
    <defs>
        <linearGradient id="def1" x1="1.15" y1="1.13" x2="0.16" y2="0.13" gradientUnits="userSpaceOnUse" gradientTransform="matrix(5.65685, -5.65685, 5.65685, 5.65685, 356.343, 54)">
            <stop offset="0.00" stop-color="#4D4D4D"/>
            <stop offset="1.00" stop-color="#4D4D4D" stop-opacity="0.00"/>
        </linearGradient>
        <linearGradient id="def2" x1="0.97" y1="0.95" x2="0.16" y2="0.13" gradientUnits="userSpaceOnUse" gradientTransform="matrix(5.65685, -5.65685, 5.65685, 5.65685, 357.343, 55)">
            <stop offset="0.00" stop-color="#FDFCFF" stop-opacity="0.66"/>
            <stop offset="1.00" stop-color="#FDFCFF" stop-opacity="0.00"/>
        </linearGradient>
    </defs>
    <g>
        <path d="M 362.00 50.00 L 370.00 50.00 L 370.00 58.00 C 367.99 58.00 364.21 58.00 362.00 58.00 C 359.79 58.00 358.00 56.21 358.00 54.00 C 358.00 51.79 359.79 50.00 362.00 50.00 " fill="url(#def1)"/>
        <g/>
        <path d="M 372.01 55.78 C 374.21 55.78 374.01 52.57 374.01 54.78 C 374.01 56.99 372.21 59.00 370.00 59.00 L 370.01 57.78 C 370.01 55.57 369.80 55.78 372.01 55.78 " fill="#FDFCFF" fill-opacity="0.66"/>
        <ellipse cx="370.00" cy="54.00" rx="4.00" ry="4.00" fill="#4D4D4D"/>
        <path d="M 362.00 58.00 L 370.00 58.00 L 370.00 59.00 C 367.99 59.00 364.21 59.00 362.00 59.00 C 359.79 59.00 358.00 57.21 358.00 55.00 C 359.00 56.79 359.79 58.00 362.00 58.00 " fill="url(#def2)"/>
    </g>
</svg>