<?xml version="1.0" encoding="UTF-8" standalone="no"?>
<svg xmlns="http://www.w3.org/2000/svg" xmlns:xlink="http://www.w3.org/1999/xlink" clip-rule="evenodd" stroke-miterlimit="10" viewBox="305.00 46.00 16.00 16.00">
    <desc>SVG generated by Lineform</desc>
    <defs/>
    <g>
        <path d="M 310.00 50.00 C 308.98 50.00 307.94 50.38 307.16 51.16 C 305.59 52.72 305.59 55.28 307.16 56.84 C 308.27 57.96 309.84 58.07 311.25 57.59 C 312.54 58.22 314.08 58.14 315.28 57.31 C 315.04 57.04 314.83 56.75 314.66 56.44 C 314.15 56.78 313.59 57.00 313.00 57.00 C 312.23 57.00 311.46 56.71 310.88 56.12 C 310.29 55.54 310.00 54.77 310.00 54.00 C 310.00 53.23 310.29 52.46 310.88 51.88 C 311.46 51.29 312.23 51.00 313.00 51.00 C 313.59 51.00 314.15 51.22 314.66 51.56 C 314.83 51.25 315.04 50.99 315.28 50.72 C 314.60 50.25 313.80 50.00 313.00 50.00 C 312.42 50.00 311.86 50.16 311.31 50.41 C 310.88 50.25 310.46 50.00 310.00 50.00 Z M 310.00 51.00 C 310.12 51.00 310.18 51.09 310.28 51.09 C 310.25 51.13 310.19 51.12 310.16 51.16 C 308.59 52.72 308.59 55.28 310.16 56.84 C 310.19 56.88 310.25 56.87 310.28 56.91 C 310.18 56.91 310.13 57.00 310.00 57.00 C 309.23 57.00 308.46 56.71 307.88 56.12 C 307.29 55.54 307.00 54.77 307.00 54.00 C 307.00 53.23 307.29 52.46 307.88 51.88 C 308.46 51.29 309.23 51.00 310.00 51.00 Z M 310.00 51.00 " fill="#4D4D4D" opacity="0.64"/>
        <path d="M 320.00 55.00 C 320.00 57.21 318.21 59.00 316.00 59.00 C 313.79 59.00 312.00 57.21 312.00 55.00 L 312.00 54.00 L 320.00 54.00 " fill="#FDFCFF" fill-opacity="0.66"/>
        <g/>
        <ellipse cx="316.00" cy="54.00" rx="4.00" ry="4.00" fill="#4D4D4D"/>
    </g>
</svg>