<?xml version="1.0" encoding="UTF-8" standalone="no"?>
<svg xmlns="http://www.w3.org/2000/svg" xmlns:xlink="http://www.w3.org/1999/xlink" clip-rule="evenodd" stroke-miterlimit="10" viewBox="339.00 46.00 16.02 16.00">
    <desc>SVG generated by Lineform</desc>
    <defs/>
    <g>
        <path d="M 343.02 50.00 C 341.99 50.00 340.95 50.38 340.17 51.16 C 338.61 52.72 338.61 55.28 340.17 56.84 C 341.48 58.15 343.49 58.35 345.02 57.47 C 344.73 57.30 344.44 57.10 344.19 56.84 C 344.17 56.83 344.16 56.81 344.14 56.79 C 343.78 56.93 343.40 57.00 343.02 57.00 C 342.25 57.00 341.48 56.71 340.89 56.12 C 340.30 55.54 340.02 54.77 340.02 54.00 C 340.02 53.23 340.30 52.46 340.89 51.88 C 341.48 51.29 342.25 51.00 343.02 51.00 C 343.40 51.00 343.78 51.07 344.14 51.22 C 344.16 51.20 344.17 51.17 344.19 51.16 C 344.44 50.90 344.72 50.71 345.02 50.54 C 344.40 50.19 343.71 50.00 343.02 50.00 Z M 347.03 50.00 C 346.01 50.00 344.97 50.38 344.19 51.16 C 342.62 52.72 342.62 55.28 344.19 56.84 C 345.75 58.41 348.31 58.41 349.87 56.84 C 351.44 55.28 351.44 52.72 349.87 51.16 C 349.09 50.38 348.05 50.00 347.03 50.00 Z M 347.03 51.00 C 347.80 51.00 348.57 51.29 349.16 51.88 C 349.75 52.46 350.03 53.23 350.03 54.00 C 350.03 54.77 349.75 55.54 349.16 56.12 C 348.57 56.71 347.80 57.00 347.03 57.00 C 346.26 57.00 345.50 56.71 344.91 56.12 C 344.32 55.54 344.03 54.77 344.03 54.00 C 344.03 53.23 344.32 52.46 344.91 51.88 C 345.50 51.29 346.26 51.00 347.03 51.00 Z M 347.03 51.00 " fill="#4D4D4D" opacity="0.60"/>
        <g/>
        <path d="M 355.00 55.00 C 355.00 57.21 353.21 59.00 351.00 59.00 C 348.79 59.00 347.00 57.21 347.00 55.00 L 347.00 54.00 L 355.00 54.00 " fill="#FDFCFF" fill-opacity="0.66"/>
        <ellipse cx="351.02" cy="54.00" rx="4.00" ry="4.00" fill="#4D4D4D"/>
    </g>
</svg>